<svg width="395" height="444" viewBox="0 0 395 444" fill="none" xmlns="http://www.w3.org/2000/svg">
<g clip-path="url(#clip0_1_310)">
<path d="M170.102 230.509C188.735 260.061 212.677 269.277 238.122 263.367C238.523 263.267 238.523 262.665 238.022 262.565C214.28 261.063 185.629 234.916 167.998 209.772C156.477 193.242 128.628 172.606 114.904 173.608C114.403 173.808 106.288 175.11 106.288 175.11C94.3673 176.914 76.8363 177.815 57.3016 178.116C48.8867 178.216 38.1677 185.429 38.3681 197.65C40.0711 207.167 49.9887 205.264 54.697 203.461C62.01 200.656 66.6182 196.047 76.135 196.949C97.2725 198.953 117.108 220.19 139.648 226.001C142.252 227.403 142.352 227.904 142.352 228.906C142.252 232.111 140.75 232.111 139.347 231.61C127.326 228.104 111.999 235.117 101.48 231.009C93.3656 227.904 92.9648 226.301 86.7538 220.791C79.7414 214.68 71.4267 204.663 58.1031 214.58C56.7006 215.782 54.5968 217.185 52.8938 217.485C49.2874 218.287 45.681 217.986 42.0747 216.083C41.9745 215.983 41.8743 216.183 41.9745 216.283C43.6775 217.886 45.4807 220.09 46.2821 222.895C47.6846 227.804 46.4825 231.41 46.4825 231.41L44.8796 235.517C44.5791 236.419 44.2786 237.22 43.978 237.821L43.4771 239.224C38.869 251.446 29.9532 278.994 32.0569 284.304C35.2626 292.218 50.6899 286.508 59.7059 286.708C64.6146 286.808 69.6235 289.814 71.5269 289.613C74.9329 289.313 75.4338 285.706 74.0313 283.202C73.0295 281.499 70.5251 279.796 68.221 278.894C65.9169 278.093 62.7112 279.295 61.7095 277.291C63.2121 273.284 71.627 275.889 74.6324 277.692C76.5357 278.794 89.8593 289.012 78.8398 301.534C77.4373 303.137 72.1279 305.041 68.3212 305.441C66.3176 298.729 58.7041 300.833 54.697 303.137C51.6917 304.84 51.8921 310.651 51.3912 314.157C51.0906 316.361 50.8903 317.062 50.189 319.366C49.4878 321.47 49.7883 323.373 49.7883 323.373C55.3983 322.672 58.5038 319.466 62.01 318.565C65.1155 317.763 68.3212 320.969 71.3265 322.171C78.4391 325.176 84.5499 326.479 94.0668 326.479C92.6643 333.19 85.3513 334.192 82.2458 334.192C78.3389 334.292 74.432 331.688 69.924 331.688C65.3158 331.688 61.1084 334.192 56.7006 333.792C56.5002 333.792 56.4 333.992 56.5002 334.092C57.4018 334.994 58.1031 336.597 58.3034 337.498C58.7041 339.902 56.2999 342.607 55.6988 344.911C55.6988 345.112 55.8992 345.212 56.0995 345.011C58.4036 341.605 64.2139 340.704 70.0242 340.804C74.7325 340.804 78.8398 342.206 82.4462 340.904C84.2494 340.203 84.1492 338.199 86.1528 338.5C87.4551 338.7 87.5553 341.605 87.3549 342.307C85.5517 348.117 79.2405 350.922 74.2316 353.627C74.1315 353.727 70.4249 356.732 69.5233 360.138C68.221 365.347 68.8221 366.149 69.2228 368.954C70.6253 375.265 75.6341 389.19 105.988 379.973C110.897 378.471 156.077 369.555 178.216 347.516C178.316 347.316 202.559 321.269 178.116 287.91C173.608 281.799 172.606 278.694 172.806 272.984C174.509 252.047 172.907 238.423 167.898 228.104C168.899 229.106 169.701 229.807 170.102 230.509ZM58.5038 222.194C58.3034 221.392 57.7024 220.391 57.6022 219.689C60.7077 217.385 65.7166 217.485 69.3229 218.287C77.1368 220.19 81.8451 229.306 87.5553 231.711C85.2512 233.915 81.6448 235.618 77.0366 236.519C77.7379 234.916 79.3407 230.308 75.0331 227.503C74.2316 231.51 71.3265 232.512 69.1226 233.814C68.7219 235.117 68.8221 235.618 69.0224 236.319C66.7183 234.516 66.9187 234.415 65.9169 231.51C67.2192 230.809 67.8203 229.807 67.9205 228.605C68.7219 222.695 63.1119 220.591 58.5038 222.194ZM95.5695 239.324C95.2689 240.426 93.9666 243.331 93.1652 244.233C89.4586 248.841 82.1457 252.247 76.2352 249.943C72.6288 248.54 64.2139 245.836 67.7201 240.326C76.7361 244.834 84.6501 237.621 90.6608 234.015C92.3638 234.916 93.8664 235.618 94.9684 236.118C96.0703 236.82 96.1705 237.521 95.5695 239.324Z" fill="#C4C4C4"/>
<path d="M170.102 230.509C188.735 260.061 212.677 269.277 238.122 263.367C238.523 263.267 238.523 262.665 238.022 262.565C214.28 261.063 185.629 234.916 167.998 209.772C156.477 193.242 128.628 172.606 114.904 173.608C114.403 173.808 106.288 175.11 106.288 175.11C94.3673 176.914 76.8363 177.815 57.3016 178.116C48.8867 178.216 38.1677 185.429 38.3681 197.65C40.0711 207.167 49.9887 205.264 54.697 203.461C62.01 200.656 66.6182 196.047 76.135 196.949C97.2725 198.953 117.108 220.19 139.648 226.001C142.252 227.403 142.352 227.904 142.352 228.906C142.252 232.111 140.75 232.111 139.347 231.61C127.326 228.104 111.999 235.117 101.48 231.009C93.3656 227.904 92.9648 226.301 86.7538 220.791C79.7414 214.68 71.4267 204.663 58.1031 214.58C56.7006 215.782 54.5968 217.185 52.8938 217.485C49.2874 218.287 45.681 217.986 42.0747 216.083C41.9745 215.983 41.8743 216.183 41.9745 216.283C43.6775 217.886 45.4807 220.09 46.2821 222.895C47.6846 227.804 46.4825 231.41 46.4825 231.41L44.8796 235.517C44.5791 236.419 44.2786 237.22 43.978 237.821L43.4771 239.224C38.869 251.446 29.9532 278.994 32.0569 284.304C35.2626 292.218 50.6899 286.508 59.7059 286.708C64.6146 286.808 69.6235 289.814 71.5269 289.613C74.9329 289.313 75.4338 285.706 74.0313 283.202C73.0295 281.499 70.5251 279.796 68.221 278.894C65.9169 278.093 62.7112 279.295 61.7095 277.291C63.2121 273.284 71.627 275.889 74.6324 277.692C76.5357 278.794 89.8593 289.012 78.8398 301.534C77.4373 303.137 72.1279 305.041 68.3212 305.441C66.3176 298.729 58.7041 300.833 54.697 303.137C51.6917 304.84 51.8921 310.651 51.3912 314.157C51.0906 316.361 50.8903 317.062 50.189 319.366C49.4878 321.47 49.7883 323.373 49.7883 323.373C55.3983 322.672 58.5038 319.466 62.01 318.565C65.1155 317.763 68.3212 320.969 71.3265 322.171C78.4391 325.176 84.5499 326.479 94.0668 326.479C92.6643 333.19 85.3513 334.192 82.2458 334.192C78.3389 334.292 74.432 331.688 69.924 331.688C65.3158 331.688 61.1084 334.192 56.7006 333.792C56.5002 333.792 56.4 333.992 56.5002 334.092C57.4018 334.994 58.1031 336.597 58.3034 337.498C58.7041 339.902 56.2999 342.607 55.6988 344.911C55.6988 345.112 55.8992 345.212 56.0995 345.011C58.4036 341.605 64.2139 340.704 70.0242 340.804C74.7325 340.804 78.8398 342.206 82.4462 340.904C84.2494 340.203 84.1492 338.199 86.1528 338.5C87.4551 338.7 87.5553 341.605 87.3549 342.307C85.5517 348.117 79.2405 350.922 74.2316 353.627C74.1315 353.727 70.4249 356.732 69.5233 360.138C68.221 365.347 68.8221 366.149 69.2228 368.954C70.6253 375.265 75.6341 389.19 105.988 379.973C110.897 378.471 156.077 369.555 178.216 347.516C178.316 347.316 202.559 321.269 178.116 287.91C173.608 281.799 172.606 278.694 172.806 272.984C174.509 252.047 172.907 238.423 167.898 228.104C168.899 229.106 169.701 229.807 170.102 230.509ZM58.5038 222.194C58.3034 221.392 57.7024 220.391 57.6022 219.689C60.7077 217.385 65.7166 217.485 69.3229 218.287C77.1368 220.19 81.8451 229.306 87.5553 231.711C85.2512 233.915 81.6448 235.618 77.0366 236.519C77.7379 234.916 79.3407 230.308 75.0331 227.503C74.2316 231.51 71.3265 232.512 69.1226 233.814C68.7219 235.117 68.8221 235.618 69.0224 236.319C66.7183 234.516 66.9187 234.415 65.9169 231.51C67.2192 230.809 67.8203 229.807 67.9205 228.605C68.7219 222.695 63.1119 220.591 58.5038 222.194ZM95.5695 239.324C95.2689 240.426 93.9666 243.331 93.1652 244.233C89.4586 248.841 82.1457 252.247 76.2352 249.943C72.6288 248.54 64.2139 245.836 67.7201 240.326C76.7361 244.834 84.6501 237.621 90.6608 234.015C92.3638 234.916 93.8664 235.618 94.9684 236.118C96.0703 236.82 96.1705 237.521 95.5695 239.324Z" fill="white"/>
<path d="M305.642 316.561C348.017 328.482 325.978 352.124 341.806 366.049C345.312 361.941 348.718 357.734 351.924 353.326C344.711 337.899 348.518 320.167 305.742 315.86C305.341 315.76 305.241 316.461 305.642 316.561Z" fill="#C4C4C4"/>
<path d="M305.642 316.561C348.017 328.482 325.978 352.124 341.806 366.049C345.312 361.941 348.718 357.734 351.924 353.326C344.711 337.899 348.518 320.167 305.742 315.86C305.341 315.76 305.241 316.461 305.642 316.561Z" fill="white"/>
<path d="M314.858 392.696C313.155 391.494 311.552 390.191 309.849 388.889C308.346 387.687 300.833 381.276 299.331 379.973C299.331 386.685 299.831 395.801 299.431 404.316C304.74 400.71 309.849 396.803 314.858 392.696Z" fill="#C4C4C4"/>
<path d="M314.858 392.696C313.155 391.494 311.552 390.191 309.849 388.889C308.346 387.687 300.833 381.276 299.331 379.973C299.331 386.685 299.831 395.801 299.431 404.316C304.74 400.71 309.849 396.803 314.858 392.696Z" fill="white"/>
<path d="M283.803 414.334C286.508 399.007 287.71 379.372 283.903 368.453C277.291 363.845 272.082 361.24 265.07 357.233C263.166 378.27 256.655 398.606 247.038 417.44C244.533 422.248 241.027 428.459 237.22 434.57C253.549 429.561 269.177 422.749 283.803 414.334Z" fill="#C4C4C4"/>
<path d="M283.803 414.334C286.508 399.007 287.71 379.372 283.903 368.453C277.291 363.845 272.082 361.24 265.07 357.233C263.166 378.27 256.655 398.606 247.038 417.44C244.533 422.248 241.027 428.459 237.22 434.57C253.549 429.561 269.177 422.749 283.803 414.334Z" fill="white"/>
<path d="M244.934 375.766C250.143 361.04 239.725 352.625 244.634 324.575L245.134 320.869C235.017 317.863 213.579 317.563 208.47 325.677C198.752 341.405 194.545 411.329 155.976 443.286C161.586 443.686 167.397 443.987 173.107 443.987C184.227 443.987 195.046 443.185 205.765 441.583C220.691 428.66 233.213 409.225 244.934 375.766Z" fill="#C4C4C4"/>
<path d="M244.934 375.766C250.143 361.04 239.725 352.625 244.634 324.575L245.134 320.869C235.017 317.863 213.579 317.563 208.47 325.677C198.752 341.405 194.545 411.329 155.976 443.286C161.586 443.686 167.397 443.987 173.107 443.987C184.227 443.987 195.046 443.185 205.765 441.583C220.691 428.66 233.213 409.225 244.934 375.766Z" fill="white"/>
<path d="M1.60214 171.939C-2.40496 170.136 1.40179 164.626 9.71652 153.306C70.3239 70.1584 232.111 116.04 242.429 114.437C250.143 113.235 139.246 56.0334 57.5012 99.1097C43.276 106.623 9.61635 120.448 7.51262 114.437C7.51262 114.437 46.9826 94.7019 64.3133 78.974C65.3151 78.0724 70.6245 73.6646 75.6333 70.5591C106.688 51.9261 142.452 43.2106 179.017 45.4145C276.99 51.2248 352.023 134.172 346.313 230.242C345.912 236.653 345.211 242.965 344.109 249.176C339.401 243.165 335.394 237.455 335.093 236.553C335.093 236.553 347.916 81.4785 183.925 56.7346C154.072 52.2266 122.516 57.0351 100.678 69.7577C107.991 69.357 115.003 69.1566 120.914 68.1548C196.648 55.2319 325.075 100.412 320.367 218.02C320.167 221.827 270.378 142.286 191.639 127.46C103.282 110.83 62.1094 135.875 62.1094 135.875C62.1094 135.875 120.613 128.362 183.224 140.884C255.051 155.209 309.949 211.409 338.499 266.306C336.496 270.313 312.954 268.209 307.144 261.097C288.711 238.457 239.724 179.452 175.911 164.225C45.8806 133.27 6.7112 174.343 1.60214 171.939Z" fill="#C4C4C4"/>
<path d="M1.60214 171.939C-2.40496 170.136 1.40179 164.626 9.71652 153.306C70.3239 70.1584 232.111 116.04 242.429 114.437C250.143 113.235 139.246 56.0334 57.5012 99.1097C43.276 106.623 9.61635 120.448 7.51262 114.437C7.51262 114.437 46.9826 94.7019 64.3133 78.974C65.3151 78.0724 70.6245 73.6646 75.6333 70.5591C106.688 51.9261 142.452 43.2106 179.017 45.4145C276.99 51.2248 352.023 134.172 346.313 230.242C345.912 236.653 345.211 242.965 344.109 249.176C339.401 243.165 335.394 237.455 335.093 236.553C335.093 236.553 347.916 81.4785 183.925 56.7346C154.072 52.2266 122.516 57.0351 100.678 69.7577C107.991 69.357 115.003 69.1566 120.914 68.1548C196.648 55.2319 325.075 100.412 320.367 218.02C320.167 221.827 270.378 142.286 191.639 127.46C103.282 110.83 62.1094 135.875 62.1094 135.875C62.1094 135.875 120.613 128.362 183.224 140.884C255.051 155.209 309.949 211.409 338.499 266.306C336.496 270.313 312.954 268.209 307.144 261.097C288.711 238.457 239.724 179.452 175.911 164.225C45.8806 133.27 6.7112 174.343 1.60214 171.939Z" fill="white"/>
<path d="M243.632 232.011C222.194 232.412 207.969 192.14 170.502 178.516C170.102 178.316 170.202 177.715 170.703 177.815C215.282 182.123 226.101 218.287 243.832 231.31C244.133 231.51 243.932 232.011 243.632 232.011ZM244.033 250.143C223.396 241.628 181.522 180.921 144.256 176.312C143.855 176.212 143.655 176.914 144.055 177.014C173.908 190.037 215.582 249.843 243.832 250.845C244.333 250.845 244.433 250.243 244.033 250.143ZM248.34 304.339C227.303 266.572 204.563 303.838 179.518 253.449C179.318 253.048 178.717 253.249 178.817 253.649C185.329 318.965 228.605 292.218 247.839 304.84C248.14 305.041 248.541 304.74 248.34 304.339Z" fill="#C4C4C4"/>
<path d="M243.632 232.011C222.194 232.412 207.969 192.14 170.502 178.516C170.102 178.316 170.202 177.715 170.703 177.815C215.282 182.123 226.101 218.287 243.832 231.31C244.133 231.51 243.932 232.011 243.632 232.011ZM244.033 250.143C223.396 241.628 181.522 180.921 144.256 176.312C143.855 176.212 143.655 176.914 144.055 177.014C173.908 190.037 215.582 249.843 243.832 250.845C244.333 250.845 244.433 250.243 244.033 250.143ZM248.34 304.339C227.303 266.572 204.563 303.838 179.518 253.449C179.318 253.048 178.717 253.249 178.817 253.649C185.329 318.965 228.605 292.218 247.839 304.84C248.14 305.041 248.541 304.74 248.34 304.339Z" fill="white"/>
<path d="M326.378 379.873C302.236 347.316 258.759 352.525 263.467 317.463C263.567 317.062 264.068 316.962 264.168 317.362C273.885 339.802 314.958 318.264 327.08 379.573C327.18 379.973 326.679 380.274 326.378 379.873Z" fill="#C4C4C4"/>
<path d="M326.378 379.873C302.236 347.316 258.759 352.525 263.467 317.463C263.567 317.062 264.068 316.962 264.168 317.362C273.885 339.802 314.958 318.264 327.08 379.573C327.18 379.973 326.679 380.274 326.378 379.873Z" fill="white"/>
<path d="M296.926 322.271C209.171 283.202 279.896 254.15 250.644 223.196C250.544 223.095 250.644 222.895 250.845 222.995C295.023 260.161 241.027 286.908 297.327 321.57C297.627 321.87 297.327 322.471 296.926 322.271Z" fill="#C4C4C4"/>
<path d="M296.926 322.271C209.171 283.202 279.896 254.15 250.644 223.196C250.544 223.095 250.644 222.895 250.845 222.995C295.023 260.161 241.027 286.908 297.327 321.57C297.627 321.87 297.327 322.471 296.926 322.271Z" fill="white"/>
<path d="M358.335 328.182C347.716 287.51 274.286 313.355 283.402 258.057C283.502 257.657 284.003 257.657 284.104 258.057C298.329 307.244 365.548 254.251 359.036 328.182C359.036 328.582 358.435 328.582 358.335 328.182Z" fill="#C4C4C4"/>
<path d="M358.335 328.182C347.716 287.51 274.286 313.355 283.402 258.057C283.502 257.657 284.003 257.657 284.104 258.057C298.329 307.244 365.548 254.251 359.036 328.182C359.036 328.582 358.435 328.582 358.335 328.182Z" fill="white"/>
<path d="M351.523 261.163C353.627 251.646 355.029 241.929 355.63 232.111C361.641 131.032 282.701 43.7776 179.518 37.6667C142.052 35.4628 105.287 44.0781 73.2298 62.7111C72.8291 62.8113 72.3282 62.9115 71.9275 62.9115L54.5968 34.3609C94.0667 9.31651 139.447 -2.40426 186.33 0.400707C308.447 7.71367 401.912 112.9 394.699 235.016C393.097 262.565 386.485 288.912 375.265 313.556C370.957 296.525 363.244 279.195 351.523 261.163Z" fill="#C4C4C4"/>
<path d="M351.523 261.163C353.627 251.646 355.029 241.929 355.63 232.111C361.641 131.032 282.701 43.7776 179.518 37.6667C142.052 35.4628 105.287 44.0781 73.2298 62.7111C72.8291 62.8113 72.3282 62.9115 71.9275 62.9115L54.5968 34.3609C94.0667 9.31651 139.447 -2.40426 186.33 0.400707C308.447 7.71367 401.912 112.9 394.699 235.016C393.097 262.565 386.485 288.912 375.265 313.556C370.957 296.525 363.244 279.195 351.523 261.163Z" fill="white"/>
</g>
<defs>
<clipPath id="clip0_1_310">
<rect width="394.3" height="443.1" fill="white" transform="scale(1.00178)"/>
</clipPath>
</defs>
</svg>
