<?xml version="1.0" encoding="UTF-8" standalone="no"?>
<svg
   width="871.33533"
   height="431.526"
   viewBox="0 0 871.33533 431.526"
   fill="none"
   version="1.1"
   id="svg600"
   sodipodi:docname="hi_blue2.svg"
   inkscape:version="1.2.2 (732a01da63, 2022-12-09)"
   xmlns:inkscape="http://www.inkscape.org/namespaces/inkscape"
   xmlns:sodipodi="http://sodipodi.sourceforge.net/DTD/sodipodi-0.dtd"
   xmlns="http://www.w3.org/2000/svg"
   xmlns:svg="http://www.w3.org/2000/svg">
  <sodipodi:namedview
     id="namedview602"
     pagecolor="#ffffff"
     bordercolor="#000000"
     borderopacity="0.25"
     inkscape:showpageshadow="2"
     inkscape:pageopacity="0.0"
     inkscape:pagecheckerboard="0"
     inkscape:deskcolor="#d1d1d1"
     showgrid="false"
     inkscape:zoom="1.2491722"
     inkscape:cx="265.77601"
     inkscape:cy="228.15109"
     inkscape:window-width="3840"
     inkscape:window-height="2054"
     inkscape:window-x="2549"
     inkscape:window-y="-11"
     inkscape:window-maximized="1"
     inkscape:current-layer="svg600" />
  <g
     clip-path="url(#clip0_1_60)"
     id="g593"
     transform="translate(-159.94465,-121.469)">
    <path
       d="m 568.696,192.901 h 85.236 V 322.48 H 777.816 V 192.901 h 85.753 V 528.494 H 777.816 V 393.739 H 653.932 v 134.755 h -85.236 z"
       fill="#ffffff"
       id="path565" />
    <path
       d="m 1014.89,192.901 h -85.237 v 335.593 h 85.237 z"
       fill="#ffffff"
       id="path567" />
    <path
       d="m 960.365,121.469 h 70.915 l -44.516,51.935 h -50.21 z"
       fill="#ffffff"
       id="path569" />
    <path
       d="m 306.433,369.411 c 16.047,25.363 36.752,33.473 58.664,28.297 0.346,-0.173 0.346,-0.691 0,-0.691 -20.532,-1.207 -45.205,-23.81 -60.389,-45.378 -10.007,-14.148 -33.818,-32.093 -45.723,-31.057 -0.345,0.172 -7.42,1.207 -7.42,1.207 -10.352,1.553 -25.363,2.416 -42.1,2.589 -7.247,0.172 -16.564,6.384 -16.391,16.909 1.38,8.282 10.007,6.556 13.976,5.003 6.384,-2.415 10.18,-6.384 18.462,-5.521 18.289,1.725 35.371,20.015 54.695,25.019 2.243,1.207 2.416,1.552 2.416,2.415 0,2.761 -1.381,2.761 -2.588,2.416 -10.353,-3.106 -23.639,2.933 -32.611,-0.518 -6.901,-2.588 -7.419,-4.141 -12.595,-8.8 -6.039,-5.348 -13.286,-13.975 -24.674,-5.348 -1.207,1.035 -3.105,2.243 -4.486,2.588 -3.105,0.69 -6.211,0.345 -9.317,-1.208 -0.172,0 -0.172,0 -0.172,0.173 1.552,1.38 3.105,3.278 3.795,5.693 1.208,4.141 0.173,7.247 0.173,7.247 l -1.38,3.623 c -0.345,0.691 -0.518,1.381 -0.69,2.071 l -0.518,1.208 c -3.969,10.525 -11.733,34.163 -9.835,38.822 2.761,6.901 16.046,1.897 23.811,2.07 4.313,0.173 8.454,2.588 10.18,2.416 2.933,-0.345 3.278,-3.451 2.07,-5.522 -0.863,-1.38 -2.933,-2.933 -5.004,-3.623 -1.897,-0.69 -4.831,0.345 -5.521,-1.38 1.38,-3.451 8.455,-1.208 11.215,0.345 1.726,1.035 13.113,9.662 3.624,20.532 -1.208,1.38 -5.694,3.106 -9.145,3.278 -1.725,-5.866 -8.282,-3.968 -11.733,-2.07 -2.588,1.38 -2.415,6.384 -2.76,9.49 -0.346,1.898 -0.346,2.588 -1.036,4.486 -0.517,1.898 -0.345,3.451 -0.345,3.451 4.831,-0.518 7.592,-3.279 10.525,-4.141 2.588,-0.691 5.522,2.07 8.11,3.105 6.211,2.588 11.387,3.796 19.669,3.624 -1.207,5.866 -7.591,6.556 -10.18,6.729 -3.45,0 -6.729,-2.071 -10.525,-2.071 -3.968,0 -7.591,2.071 -11.387,1.898 -0.173,0 -0.173,0.173 -0.173,0.345 0.69,0.863 1.38,2.243 1.553,2.934 0.345,2.07 -1.725,4.313 -2.243,6.384 0,0.172 0.173,0.345 0.345,0.172 2.071,-2.933 6.902,-3.623 12.078,-3.623 4.141,0 7.592,1.208 10.698,0 1.552,-0.518 1.552,-2.416 3.105,-2.071 1.208,0.173 1.208,2.761 1.036,3.279 -1.553,5.003 -7.075,7.419 -11.216,9.834 -0.172,0.173 -3.278,2.589 -3.968,5.694 -1.208,4.486 -0.69,5.176 -0.345,7.592 1.208,5.349 5.521,17.427 31.747,9.49 4.314,-1.381 43.136,-8.972 62.288,-27.952 0.172,-0.172 21.05,-22.603 -0.173,-51.417 -3.796,-5.349 -4.658,-7.937 -4.658,-12.768 1.38,-17.945 0,-29.677 -4.141,-38.649 0.172,0.172 0.862,0.69 1.207,1.38 z m -96.105,-7.247 c -0.173,-0.69 -0.69,-1.553 -0.69,-2.243 2.588,-1.898 6.901,-1.898 10.007,-1.208 6.729,1.553 10.87,9.49 15.701,11.561 -2.07,1.898 -5.003,3.278 -9.144,4.141 0.69,-1.381 1.898,-5.349 -1.726,-7.765 -0.69,3.451 -3.278,4.314 -5.176,5.349 -0.345,1.208 -0.172,1.553 -0.172,2.07 -2.071,-1.552 -1.898,-1.725 -2.589,-4.141 1.208,-0.517 1.553,-1.38 1.726,-2.415 0.863,-4.831 -3.969,-6.729 -7.937,-5.349 z m 31.92,14.839 c -0.345,0.862 -1.38,3.451 -2.07,4.313 -3.279,3.969 -9.49,6.902 -14.494,4.831 -3.106,-1.207 -10.352,-3.623 -7.419,-8.282 7.764,3.796 14.666,-2.243 19.67,-5.521 1.552,0.69 2.76,1.38 3.623,1.898 1.208,0.518 1.208,1.208 0.69,2.761 z"
       fill="#ffffff"
       id="path571" />
    <path
       d="m 423.244,443.604 c 36.579,10.18 17.427,30.712 31.23,42.617 3.106,-3.623 5.866,-7.246 8.627,-10.87 -6.212,-13.285 -2.933,-28.469 -39.685,-32.265 -0.517,-0.173 -0.517,0.345 -0.172,0.518 z"
       fill="#ffffff"
       id="path573" />
    <path
       d="m 431.181,509.169 c -1.38,-1.035 -2.933,-2.07 -4.314,-3.278 -1.38,-1.035 -7.764,-6.557 -9.144,-7.592 0,5.694 0.517,13.631 0.172,21.05 4.486,-3.278 8.972,-6.729 13.286,-10.18 z"
       fill="#ffffff"
       id="path575" />
    <path
       d="m 404.437,527.631 c 2.416,-13.285 3.451,-30.022 0,-39.512 -5.694,-3.968 -10.18,-6.211 -16.219,-9.662 -1.725,18.117 -7.247,35.543 -15.529,51.762 -2.07,4.141 -5.176,9.49 -8.454,14.666 14.148,-4.141 27.606,-10.007 40.202,-17.254 z"
       fill="#ffffff"
       id="path577" />
    <path
       d="m 370.964,494.503 c 4.486,-12.595 -4.486,-20.014 -0.345,-44.17 l 0.345,-3.279 c -8.627,-2.588 -27.262,-2.933 -31.575,4.141 -8.455,13.631 -11.905,73.848 -45.206,101.282 4.831,0.345 9.835,0.518 14.839,0.518 9.489,0 18.979,-0.69 28.124,-2.071 12.94,-10.87 23.638,-27.606 33.818,-56.421 z"
       fill="#ffffff"
       id="path579" />
    <path
       d="m 161.326,320.064 c -3.451,-1.553 -0.172,-6.211 6.902,-16.046 52.28,-71.605 191.521,-32.093 200.493,-33.473 6.556,-1.036 -88.859,-50.382 -159.256,-13.286 -12.25,6.384 -41.237,18.462 -43.135,13.286 0,0 33.991,-17.082 48.829,-30.54 0.863,-0.863 5.521,-4.486 9.835,-7.247 26.744,-16.046 57.629,-23.638 89.031,-21.74 84.373,5.004 149.076,76.436 144.072,159.083 -0.345,5.521 -1.035,11.043 -1.898,16.391 -3.968,-5.176 -7.592,-10.007 -7.764,-10.87 0,0 11.043,-133.547 -130.269,-154.942 -25.708,-3.968 -52.97,0.173 -71.777,11.215 6.212,-0.345 12.423,-0.517 17.427,-1.38 65.22,-11.042 175.819,27.779 171.851,129.061 -0.173,3.278 -43.136,-65.221 -110.944,-77.989 -76.091,-14.321 -111.634,7.247 -111.634,7.247 0,0 50.382,-6.384 104.387,4.314 61.942,12.25 109.219,60.734 133.72,108.01 -1.726,3.451 -21.913,1.726 -27.089,-4.486 -15.874,-19.497 -58.147,-70.396 -113.015,-83.337 -111.634,-26.571 -145.452,8.8 -149.766,6.729 z"
       fill="#ffffff"
       id="path581" />
    <path
       d="m 369.756,370.619 c -18.462,0.345 -30.712,-34.336 -62.978,-46.069 -0.345,-0.172 -0.172,-0.69 0.173,-0.69 38.477,3.796 47.794,34.853 62.978,46.068 0.172,0.346 0.172,0.691 -0.173,0.691 z m 0.345,15.701 c -17.772,-7.247 -53.833,-59.527 -85.925,-63.668 -0.346,0 -0.518,0.518 -0.173,0.69 25.709,11.215 61.597,62.805 85.926,63.668 0.517,-0.172 0.517,-0.69 0.172,-0.69 z m 3.796,46.586 c -18.117,-32.438 -37.787,-0.518 -59.354,-43.825 -0.173,-0.346 -0.69,-0.173 -0.69,0.172 5.694,56.249 42.962,33.128 59.526,43.998 0.345,0.345 0.691,0 0.518,-0.345 z"
       fill="#ffffff"
       id="path583" />
    <path
       d="m 441.188,498.127 c -20.705,-27.952 -58.146,-23.638 -54.178,-53.833 0,-0.345 0.518,-0.345 0.69,-0.173 8.282,19.325 43.653,0.69 54.178,53.661 -0.172,0.345 -0.517,0.517 -0.69,0.345 z"
       fill="#ffffff"
       id="path585" />
    <path
       d="m 415.652,448.435 c -75.573,-33.646 -14.666,-58.664 -39.857,-85.408 0,-0.173 0,-0.173 0.172,-0.173 37.96,32.093 -8.454,55.041 40.03,84.891 0.345,0.345 0,0.862 -0.345,0.69 z"
       fill="#ffffff"
       id="path587" />
    <path
       d="m 468.622,453.611 c -9.145,-35.026 -72.467,-12.768 -64.53,-60.389 0,-0.346 0.517,-0.346 0.69,0 12.25,42.445 70.052,-3.279 64.53,60.389 -0.172,0.173 -0.69,0.345 -0.69,0 z"
       fill="#ffffff"
       id="path589" />
    <path
       d="m 462.756,395.81 c 1.898,-8.11 3.106,-16.564 3.623,-25.019 5.177,-87.133 -62.805,-162.189 -151.663,-167.537 -32.266,-1.898 -63.841,5.521 -91.62,21.567 -0.345,0 -0.69,0.173 -1.035,0.173 L 207.05,200.32 c 33.99,-21.567 73.157,-31.575 113.532,-29.159 105.25,6.211 185.654,96.968 179.443,202.046 -1.38,23.81 -7.074,46.413 -16.737,67.636 -3.796,-14.666 -10.525,-29.505 -20.532,-45.033 z"
       fill="#ffffff"
       id="path591" />
  </g>
  <defs
     id="defs598">
    <clipPath
       id="clip0_1_60">
      <rect
         width="1207.79"
         height="700"
         fill="#ffffff"
         id="rect595"
         x="0"
         y="0" />
    </clipPath>
  </defs>
</svg>
