<?xml version="1.0" encoding="UTF-8" standalone="no"?>
<svg
   width="689.78467"
   height="153.33043"
   viewBox="0 0 689.78467 153.33043"
   fill="none"
   version="1.1"
   id="svg317"
   sodipodi:docname="hi_named_logo-en.svg"
   inkscape:version="1.2.2 (732a01da63, 2022-12-09)"
   xmlns:inkscape="http://www.inkscape.org/namespaces/inkscape"
   xmlns:sodipodi="http://sodipodi.sourceforge.net/DTD/sodipodi-0.dtd"
   xmlns="http://www.w3.org/2000/svg"
   xmlns:svg="http://www.w3.org/2000/svg">
  <sodipodi:namedview
     id="namedview319"
     pagecolor="#ffffff"
     bordercolor="#000000"
     borderopacity="0.25"
     inkscape:showpageshadow="2"
     inkscape:pageopacity="0.0"
     inkscape:pagecheckerboard="0"
     inkscape:deskcolor="#d1d1d1"
     showgrid="false"
     inkscape:zoom="1.7384793"
     inkscape:cx="221.74553"
     inkscape:cy="74.202783"
     inkscape:window-width="3840"
     inkscape:window-height="2054"
     inkscape:window-x="2549"
     inkscape:window-y="-11"
     inkscape:window-maximized="1"
     inkscape:current-layer="svg317" />
  <g
     clip-path="url(#clip0_279_537)"
     id="g310"
     transform="translate(-87.005361,-97.945602)">
    <path
       d="m 256.179,107.388 h 13.697 v 32.448 c 0,6.363 3.372,10.005 9.745,10.005 6.374,0 9.666,-3.672 9.666,-10.005 v -32.448 h 13.787 v 33.949 c 0,12.656 -8.615,21.011 -23.453,21.011 -14.838,0 -23.452,-8.395 -23.452,-21.011 z"
       fill="#ffffff"
       id="path250" />
    <path
       d="m 322.565,106.638 27.425,24.283 c 1.5,1.191 2.921,2.541 4.422,3.672 v -27.205 h 13.517 v 54.66 h -0.52 l -27.655,-24.353 -4.342,-3.592 v 27.194 h -13.418 v -54.659 z"
       fill="#ffffff"
       id="path252" />
    <path
       d="m 387.31,161.337 v -53.949 h 13.707 v 53.949 z"
       fill="#ffffff"
       id="path254" />
    <path
       d="m 428.962,107.388 6.894,14.908 c 2.241,5.003 4.492,9.896 5.763,13.788 0.83,-1.791 4.202,-10.116 5.853,-13.788 l 6.894,-14.908 h 15.008 l -27.405,54.66 h -0.59 l -27.425,-54.66 z"
       fill="#ffffff"
       id="path256" />
    <path
       d="m 482.391,107.388 h 35.369 v 11.536 h -21.651 v 9.596 h 18.51 v 10.936 h -18.51 v 10.345 h 22.782 v 11.536 h -36.5 z"
       fill="#ffffff"
       id="path258" />
    <path
       d="m 535.3,161.337 v -53.949 h 19.63 c 12.887,0 21.802,6.224 21.802,18.36 0,7.794 -4.002,13.007 -9.885,15.589 l 10.866,20.01 H 563.395 L 554.7,143.588 h -6.003 v 17.759 z m 13.407,-28.695 h 6.894 c 4.122,0 7.274,-2.001 7.274,-6.894 0,-4.722 -3.222,-6.824 -7.344,-6.824 h -6.824 z"
       fill="#ffffff"
       id="path260" />
    <path
       d="m 611.431,106.337 c 4.912,-0.043 9.79,0.822 14.388,2.552 v 12.657 c -4.052,-2.264 -8.626,-3.427 -13.267,-3.372 -4.943,0 -8.095,1.731 -8.095,4.422 0,2.692 3.152,4.273 9.445,6.824 9.065,3.592 15.289,7.414 15.289,17.009 0,10.006 -7.494,16.009 -20.912,16.009 -5.581,0.056 -11.123,-0.935 -16.339,-2.922 v -13.237 c 3.956,2.114 8.286,3.436 12.747,3.892 1.42,0.136 2.849,0.162 4.273,0.08 4.412,-0.3 6.893,-1.501 6.893,-3.752 0,-2.841 -3.371,-4.272 -10.005,-6.743 -9.065,-3.442 -14.908,-7.194 -14.908,-17.08 0,-9.885 8.194,-16.339 20.491,-16.339 z"
       fill="#ffffff"
       id="path262" />
    <path
       d="m 645.219,161.337 v -53.949 h 13.718 v 53.949 z"
       fill="#ffffff"
       id="path264" />
    <path
       d="m 673.845,107.388 h 42.563 v 11.536 H 702.02 v 42.413 h -13.787 v -42.413 h -14.388 z"
       fill="#ffffff"
       id="path266" />
    <path
       d="m 723.672,107.388 h 15.588 l 10.936,20.231 11.006,-20.231 h 15.588 l -19.65,33.348 v 20.601 h -13.707 v -20.601 z"
       fill="#ffffff"
       id="path268" />
    <path
       d="m 253.557,213.356 c 0,-15.439 11.917,-28.015 28.546,-28.015 16.629,0 28.555,12.506 28.555,28.015 0,15.508 -11.836,28.015 -28.555,28.015 -16.719,0 -28.546,-12.357 -28.546,-28.015 z m 28.546,15.508 c 8.774,0 14.688,-7.114 14.688,-15.508 0,-8.395 -5.914,-15.519 -14.688,-15.519 -8.775,0 -14.758,7.194 -14.758,15.519 0,8.324 5.993,15.508 14.758,15.508 z"
       fill="#ffffff"
       id="path270" />
    <path
       d="m 327.067,186.381 h 33.568 v 11.536 h -19.86 v 10.346 h 16.709 v 11.236 h -16.709 v 20.831 h -13.708 z"
       fill="#ffffff"
       id="path272" />
    <path
       d="m 404.619,240.33 v -53.949 h 13.708 v 53.949 z"
       fill="#ffffff"
       id="path274" />
    <path
       d="m 434.665,213.356 c 0,-15.589 11.917,-28.015 28.696,-28.015 5.389,-0.098 10.72,1.136 15.518,3.591 v 12.517 c -4.409,-2.345 -9.323,-3.581 -14.317,-3.602 -10.186,0 -16.109,7.194 -16.109,15.519 0,8.324 5.773,15.508 15.508,15.508 5.309,0.034 10.55,-1.197 15.288,-3.592 v 12.657 c -3.291,1.731 -9.445,3.452 -16.488,3.452 -16.179,-0.01 -28.096,-12.307 -28.096,-28.035 z"
       fill="#ffffff"
       id="path276" />
    <path
       d="m 495.808,186.381 h 35.369 v 11.536 h -21.651 v 9.595 h 18.49 v 10.936 h -18.51 v 10.346 h 22.772 v 11.536 h -36.49 z"
       fill="#ffffff"
       id="path278" />
    <path
       d="m 548.707,240.33 v -53.949 h 13.717 v 42.413 h 19.481 v 11.536 z"
       fill="#ffffff"
       id="path280" />
    <path
       d="m 591.5,240.33 26.825,-54.7 h 0.67 l 26.835,54.7 h -14.318 l -3.822,-8.245 h -18.13 l -3.752,8.245 z m 32.298,-17.46 c -1.881,-4.272 -4.053,-9.595 -5.103,-12.887 -0.751,1.791 -3.672,9.436 -5.163,12.887 z"
       fill="#ffffff"
       id="path282" />
    <path
       d="m 660.087,185.63 27.425,24.273 c 1.501,1.201 2.922,2.552 4.423,3.672 v -27.194 h 13.487 v 54.709 h -0.52 l -27.655,-24.353 -4.343,-3.602 v 27.205 h -13.417 v -54.71 z"
       fill="#ffffff"
       id="path284" />
    <path
       d="m 724.802,240.33 v -53.949 h 18.06 c 18.88,0 30.567,11.386 30.567,27.014 0,15.629 -11.687,27.015 -30.497,27.015 z m 18.01,-11.536 c 10.946,0 16.789,-7.004 16.789,-15.439 0,-8.434 -5.843,-15.438 -16.859,-15.438 h -4.202 v 30.877 z"
       fill="#ffffff"
       id="path286" />
    <path
       d="m 145.809,177.576 c 6.464,10.206 14.718,13.407 23.513,11.366 0.034,0 0.067,-0.013 0.092,-0.038 0.024,-0.024 0.038,-0.057 0.038,-0.092 0,-0.034 -0.014,-0.067 -0.038,-0.092 -0.025,-0.024 -0.058,-0.038 -0.092,-0.038 -8.215,-0.51 -18.12,-9.555 -24.203,-18.23 -4.002,-5.693 -13.588,-12.837 -18.36,-12.486 -0.16,0.08 -3.002,0.51 -3.002,0.51 -5.613,0.687 -11.264,1.021 -16.919,1 -1.753,0.055 -3.416,0.789 -4.637,2.048 -1.221,1.258 -1.905,2.942 -1.907,4.696 0.581,3.302 4.002,2.621 5.633,2.001 2.522,-1 4.103,-2.561 7.424,-2.241 7.304,0.71 14.158,8.004 21.932,10.005 0.901,0.481 0.951,0.651 0.941,1.001 0,1.11 -0.551,1.09 -1.001,1 -4.142,-1.22 -9.455,1.201 -13.077,-0.19 -2.791,-1.07 -2.941,-1.641 -5.083,-3.522 -2.421,-2.121 -5.312,-5.573 -9.905,-2.141 -0.523,0.457 -1.137,0.798 -1.801,1.001 -1.259,0.295 -2.582,0.12 -3.722,-0.49 0,0 -0.07,0 0,0.05 0.688,0.615 1.205,1.397 1.501,2.271 0.305,0.95 0.329,1.968 0.07,2.931 l -0.55,1.421 c -0.11,0.3 -0.23,0.59 -0.31,0.801 l -0.191,0.48 c -1.59,4.212 -4.682,13.727 -4.0017,15.558 1.0906,2.742 6.4237,0.771 9.5647,0.841 1.701,0.05 3.412,1.06 4.063,1 1.18,-0.11 1.35,-1.36 0.86,-2.201 -0.504,-0.683 -1.201,-1.198 -2.001,-1.481 -0.78,-0.28 -1.911,0.15 -2.251,-0.54 0.53,-1.401 3.422,-0.48 4.482,0.14 0.681,0.39 5.253,3.902 1.441,8.235 -1.071,0.766 -2.33,1.229 -3.642,1.34 -0.681,-2.321 -3.332,-1.591 -4.703,-0.81 -1,0.59 -0.95,2.591 -1.13,3.802 -0.078,0.61 -0.219,1.21 -0.421,1.791 -0.144,0.452 -0.192,0.929 -0.139,1.401 2.001,-0.241 3.001,-1.341 4.222,-1.671 1.22,-0.331 2.181,0.82 3.221,1.25 2.478,1.066 5.16,1.572 7.855,1.481 -0.47,2.321 -3.002,2.652 -4.062,2.682 -1.361,0 -2.702,-0.861 -4.253,-0.851 -1.551,0.01 -3.001,0.861 -4.572,0.741 -0.013,-0.001 -0.026,0.002 -0.037,0.009 -0.012,0.006 -0.021,0.016 -0.027,0.027 -0.007,0.011 -0.009,0.024 -0.009,0.037 0.001,0.013 0.005,0.026 0.013,0.037 0.298,0.334 0.51,0.736 0.62,1.17 0.15,0.831 -0.7,1.751 -0.89,2.562 0.005,0.013 0.014,0.024 0.025,0.032 0.012,0.007 0.026,0.012 0.04,0.012 0.014,0 0.027,-0.005 0.039,-0.012 0.012,-0.008 0.02,-0.019 0.026,-0.032 0.8,-1.161 2.791,-1.471 4.812,-1.451 1.641,0 3.052,0.49 4.303,0 0.6,-0.23 0.59,-0.941 1.27,-0.841 0.461,0.07 0.491,1.091 0.411,1.321 -0.631,2.001 -2.802,3.002 -4.523,3.912 -0.733,0.593 -1.289,1.375 -1.611,2.261 -0.324,0.969 -0.366,2.01 -0.12,3.002 0.49,2.181 2.231,7.004 12.707,3.822 1.711,-0.52 17.299,-3.592 24.963,-11.216 0.05,-0.06 8.415,-9.055 0,-20.591 -1.54,-2.111 -1.88,-3.172 -1.84,-5.143 0.59,-7.214 0,-11.936 -1.691,-15.498 0.27,0.235 0.488,0.525 0.64,0.85 z m -38.571,-2.881 c -0.125,-0.279 -0.229,-0.567 -0.31,-0.861 0.602,-0.339 1.266,-0.557 1.953,-0.639 0.687,-0.083 1.383,-0.028 2.049,0.159 2.681,0.64 4.322,3.802 6.303,4.642 -1.037,0.882 -2.297,1.46 -3.641,1.671 0.292,-0.511 0.383,-1.114 0.255,-1.689 -0.128,-0.575 -0.465,-1.082 -0.946,-1.422 -0.29,1.37 -1.28,1.721 -2.001,2.171 -0.093,0.276 -0.093,0.574 0,0.85 -0.8,-0.61 -0.74,-0.67 -1.07,-1.661 0.196,-0.088 0.366,-0.227 0.491,-0.403 0.125,-0.176 0.2,-0.382 0.219,-0.597 0.25,-2.051 -1.751,-2.762 -3.332,-2.221 z m 12.817,5.903 c -0.204,0.604 -0.487,1.179 -0.84,1.711 -1.291,1.601 -3.812,2.771 -5.843,2.001 -1.231,-0.49 -4.143,-1.421 -3.002,-3.322 3.102,1.551 5.853,-0.94 7.924,-2.191 0.6,0.3 1.111,0.57 1.481,0.74 0.37,0.17 0.45,0.451 0.25,1.061 z"
       fill="#ffffff"
       id="path288" />
    <path
       d="m 192.614,207.312 c 14.648,4.113 7.004,12.297 12.507,17.09 1.211,-1.421 2.371,-2.892 3.482,-4.393 -2.501,-5.343 -1.181,-11.446 -15.939,-13.007 -0.041,-0.006 -0.083,0.004 -0.117,0.028 -0.033,0.024 -0.056,0.061 -0.063,0.102 -0.006,0.041 0.004,0.084 0.028,0.117 0.024,0.034 0.061,0.057 0.102,0.063 z"
       fill="#ffffff"
       id="path290" />
    <path
       d="m 195.776,233.606 c -0.57,-0.42 -1.151,-0.85 -1.721,-1.3 -0.57,-0.451 -3.122,-2.652 -3.642,-3.072 0,2.311 0.19,5.463 0,8.415 1.871,-1.271 3.652,-2.622 5.363,-4.043 z"
       fill="#ffffff"
       id="path292" />
    <path
       d="m 185.06,241.091 c 0.941,-5.293 1.361,-12.067 0,-15.859 -2.102,-1.403 -4.276,-2.696 -6.513,-3.872 -0.732,7.244 -2.845,14.282 -6.224,20.731 -0.85,1.671 -2.081,3.802 -3.381,5.904 5.619,-1.679 11.027,-3.995 16.118,-6.904 z"
       fill="#ffffff"
       id="path294" />
    <path
       d="m 171.643,227.763 c 1.781,-5.083 -1.801,-8.004 -0.12,-17.689 l 0.16,-1.291 c -3.482,-1.001 -10.916,-1.161 -12.657,1.651 -3.362,5.433 -4.792,29.606 -18.13,40.612 1.961,0.153 3.936,0.23 5.923,0.23 3.775,0.003 7.544,-0.275 11.277,-0.831 5.152,-4.412 9.475,-11.116 13.547,-22.682 z"
       fill="#ffffff"
       id="path296" />
    <path
       d="m 87.5574,157.805 c -1.3807,-0.64 -0.07,-2.511 2.8016,-6.443 20.951,-28.716 76.841,-12.877 80.403,-13.428 2.662,-0.42 -35.669,-20.2 -63.894,-5.312 -4.913,2.591 -16.539,7.394 -17.2694,5.302 0,0 13.6374,-6.833 19.6104,-12.236 1.241,-1.054 2.552,-2.023 3.922,-2.902 10.754,-6.444 23.207,-9.479 35.72,-8.704 33.858,2.001 59.792,30.656 57.811,63.844 -0.132,2.2 -0.386,4.392 -0.76,6.564 -1.136,-1.385 -2.175,-2.846 -3.112,-4.373 0,0 4.412,-53.569 -52.228,-62.133 -10.316,-1.561 -21.232,0.1 -28.756,4.482 2.343,-0.061 4.681,-0.248 7.004,-0.56 26.174,-4.463 70.548,11.146 68.917,51.768 -0.06,1.321 -17.269,-26.174 -44.494,-31.287 -30.527,-5.733 -44.764,2.911 -44.764,2.911 13.964,-1.442 28.064,-0.859 41.862,1.731 24.824,4.943 43.774,24.374 53.649,43.334 -0.71,1.371 -8.824,0.68 -10.835,-1.791 -6.374,-7.824 -23.293,-28.215 -45.325,-33.458 -44.954,-10.676 -58.5116,3.512 -60.2626,2.691 z"
       fill="#ffffff"
       id="path298" />
    <path
       d="m 171.163,178.056 c -7.414,0.14 -12.337,-13.767 -25.264,-18.48 -0.026,-0.015 -0.046,-0.038 -0.057,-0.065 -0.012,-0.027 -0.015,-0.058 -0.008,-0.087 0.006,-0.029 0.022,-0.055 0.045,-0.074 0.022,-0.02 0.05,-0.031 0.08,-0.034 15.408,1.491 19.15,14.008 25.274,18.5 0.023,0.015 0.042,0.038 0.052,0.064 0.01,0.027 0.011,0.056 0.003,0.083 -0.008,0.027 -0.024,0.051 -0.047,0.068 -0.023,0.016 -0.05,0.026 -0.078,0.025 z m 0.16,6.254 c -7.134,-2.932 -21.592,-23.913 -34.469,-25.534 -0.03,0 -0.06,0.011 -0.084,0.029 -0.024,0.019 -0.041,0.045 -0.049,0.075 -0.008,0.029 -0.006,0.06 0.005,0.088 0.012,0.029 0.032,0.052 0.058,0.068 10.316,4.492 24.693,25.164 34.489,25.524 0.021,-0.007 0.041,-0.019 0.057,-0.036 0.016,-0.017 0.026,-0.037 0.032,-0.06 0.005,-0.022 0.004,-0.045 -0.003,-0.067 -0.007,-0.022 -0.019,-0.042 -0.036,-0.057 z m 1.5,18.76 c -7.263,-13.007 -15.128,-0.19 -23.782,-17.58 -0.011,-0.031 -0.034,-0.057 -0.063,-0.073 -0.029,-0.015 -0.064,-0.019 -0.096,-0.01 -0.032,0.009 -0.059,0.03 -0.076,0.058 -0.017,0.029 -0.023,0.063 -0.016,0.095 2.262,22.583 17.2,13.318 23.843,17.68 0.024,0.018 0.054,0.027 0.084,0.026 0.03,-0.001 0.059,-0.013 0.081,-0.033 0.022,-0.02 0.037,-0.047 0.042,-0.077 0.004,-0.03 -0.001,-0.06 -0.017,-0.086 z"
       fill="#ffffff"
       id="path300" />
    <path
       d="m 199.838,229.184 c -8.334,-11.246 -23.353,-9.465 -21.742,-21.562 0.008,-0.027 0.024,-0.051 0.047,-0.068 0.023,-0.017 0.05,-0.026 0.078,-0.026 0.029,0 0.056,0.009 0.079,0.026 0.022,0.017 0.039,0.041 0.046,0.068 3.362,7.734 17.54,0.29 21.722,21.492 -0.002,0.026 -0.012,0.05 -0.029,0.07 -0.016,0.02 -0.038,0.034 -0.062,0.042 -0.025,0.007 -0.051,0.007 -0.076,0 -0.025,-0.007 -0.047,-0.022 -0.063,-0.042 z"
       fill="#ffffff"
       id="path302" />
    <path
       d="m 189.583,209.263 c -30.317,-13.497 -5.864,-23.532 -16.009,-34.248 0,0 0,-0.08 0.05,-0.05 15.248,12.847 -3.412,22.092 16.009,34.068 0.019,0.015 0.034,0.035 0.043,0.059 0.008,0.023 0.01,0.048 0.005,0.072 -0.005,0.024 -0.017,0.046 -0.035,0.064 -0.017,0.018 -0.039,0.03 -0.063,0.035 z"
       fill="#ffffff"
       id="path304" />
    <path
       d="m 210.844,211.325 c -3.662,-14.058 -29.016,-5.123 -25.884,-24.224 0,-0.034 0.014,-0.067 0.038,-0.092 0.025,-0.024 0.058,-0.038 0.092,-0.038 0.035,0 0.068,0.014 0.092,0.038 0.024,0.025 0.038,0.058 0.038,0.092 4.913,17.01 28.125,-1.32 25.884,24.214 0.002,0.034 -0.011,0.068 -0.034,0.093 -0.024,0.025 -0.056,0.04 -0.091,0.042 -0.034,0.001 -0.068,-0.012 -0.093,-0.035 -0.026,-0.023 -0.041,-0.056 -0.042,-0.09 z"
       fill="#ffffff"
       id="path306" />
    <path
       d="m 208.443,188.152 c 0.743,-3.292 1.221,-6.637 1.431,-10.005 2.071,-34.919 -25.214,-65.036 -60.833,-67.177 -12.835,-0.795 -25.617,2.223 -36.74,8.675 l -0.43,0.08 -6.004,-9.905 c 13.551,-8.622 29.485,-12.7273 45.515,-11.7268 12.418,0.7365 24.469,4.4848 35.114,10.9208 10.645,6.435 19.564,15.366 25.986,26.019 6.422,10.653 10.155,22.71 10.875,35.128 0.72,12.419 -1.593,24.826 -6.74,36.151 -1.69,-6.468 -4.453,-12.606 -8.174,-18.16 z"
       fill="#ffffff"
       id="path308" />
  </g>
  <defs
     id="defs315">
    <clipPath
       id="clip0_279_537">
      <rect
         width="867.53003"
         height="343.57999"
         fill="#ffffff"
         transform="scale(1.00054)"
         id="rect312"
         x="0"
         y="0" />
    </clipPath>
  </defs>
</svg>
